<svg 
 xmlns="http://www.w3.org/2000/svg"
 xmlns:xlink="http://www.w3.org/1999/xlink"
 width="29px" height="22px">
<path fill-rule="evenodd"  fill="rgb(55, 97, 170)"
 d="M28.473,3.038 L25.929,0.520 C25.580,0.175 25.156,0.002 24.657,0.002 C24.158,0.002 23.734,0.175 23.385,0.520 L11.114,12.684 L5.615,7.222 C5.266,6.877 4.842,6.704 4.343,6.704 C3.844,6.704 3.420,6.877 3.071,7.222 L0.527,9.741 C0.178,10.086 0.003,10.506 0.003,11.000 C0.003,11.493 0.178,11.913 0.527,12.258 L7.298,18.960 L9.842,21.478 C10.191,21.824 10.615,21.997 11.114,21.997 C11.613,21.997 12.037,21.824 12.386,21.478 L14.930,18.960 L28.473,5.556 C28.822,5.211 28.996,4.791 28.996,4.297 C28.996,3.804 28.822,3.384 28.473,3.038 Z"/>
</svg>