<svg 
 xmlns="http://www.w3.org/2000/svg"
 xmlns:xlink="http://www.w3.org/1999/xlink"
 width="69px" height="69px">
<path fill-rule="evenodd"  stroke="rgb(55, 97, 170)" stroke-width="6px" stroke-linecap="butt" stroke-linejoin="miter" fill="rgb(55, 97, 170)"
 d="M3.000,62.997 L3.000,13.998 L12.750,13.998 C14.313,13.160 24.031,7.927 29.373,4.576 C30.285,3.609 31.569,2.998 33.000,2.998 C34.431,2.998 35.715,3.609 36.627,4.576 C41.968,7.927 51.687,13.160 53.250,13.998 L63.000,13.998 L63.000,62.997 L3.000,62.997 ZM35.932,7.368 C35.922,7.320 35.902,7.278 35.890,7.234 C35.744,6.702 35.476,6.291 35.233,6.018 C35.228,6.013 35.227,6.006 35.223,6.001 C34.673,5.390 33.885,4.998 33.000,4.998 C32.115,4.998 31.327,5.390 30.777,6.001 C30.772,6.006 30.771,6.013 30.767,6.018 C30.524,6.292 30.256,6.702 30.110,7.236 C30.098,7.280 30.079,7.321 30.069,7.368 C30.026,7.561 30.000,7.771 30.000,7.997 C30.000,9.652 31.346,10.998 33.000,10.998 C34.654,10.998 36.000,9.652 36.000,7.997 C36.000,7.771 35.974,7.561 35.932,7.368 ZM37.994,7.751 C37.998,7.832 38.000,7.916 38.000,7.997 C38.000,10.754 35.757,12.997 33.000,12.997 C30.243,12.997 28.000,10.754 28.000,7.997 C28.000,7.916 28.002,7.832 28.006,7.751 C24.413,9.888 19.971,12.348 16.949,13.998 L49.051,13.998 C46.029,12.348 41.587,9.888 37.994,7.751 ZM61.000,15.998 L53.000,15.998 L13.000,15.998 L5.000,15.998 L5.000,20.998 L61.000,20.998 L61.000,15.998 ZM61.000,22.997 L5.000,22.997 L5.000,60.998 L61.000,60.998 L61.000,22.997 ZM12.000,37.998 C12.552,37.998 13.000,38.446 13.000,38.998 C13.000,39.550 12.552,39.997 12.000,39.997 C11.447,39.997 11.000,39.550 11.000,38.998 C11.000,38.446 11.447,37.998 12.000,37.998 ZM12.000,44.997 C12.552,44.997 13.000,45.445 13.000,45.997 C13.000,46.550 12.552,46.998 12.000,46.998 C11.447,46.998 11.000,46.550 11.000,45.997 C11.000,45.445 11.447,44.997 12.000,44.997 ZM12.000,52.997 C12.552,52.997 13.000,53.445 13.000,53.997 C13.000,54.550 12.552,54.998 12.000,54.998 C11.447,54.998 11.000,54.550 11.000,53.997 C11.000,53.445 11.447,52.997 12.000,52.997 ZM19.000,37.998 C19.552,37.998 20.000,38.446 20.000,38.998 C20.000,39.550 19.552,39.997 19.000,39.997 C18.447,39.997 18.000,39.550 18.000,38.998 C18.000,38.446 18.447,37.998 19.000,37.998 ZM19.000,44.997 C19.552,44.997 20.000,45.445 20.000,45.997 C20.000,46.550 19.552,46.998 19.000,46.998 C18.447,46.998 18.000,46.550 18.000,45.997 C18.000,45.445 18.447,44.997 19.000,44.997 ZM19.000,52.997 C19.552,52.997 20.000,53.445 20.000,53.997 C20.000,54.550 19.552,54.998 19.000,54.998 C18.447,54.998 18.000,54.550 18.000,53.997 C18.000,53.445 18.447,52.997 19.000,52.997 ZM26.000,29.997 C26.552,29.997 27.000,30.445 27.000,30.997 C27.000,31.549 26.552,31.998 26.000,31.998 C25.447,31.998 25.000,31.549 25.000,30.997 C25.000,30.445 25.447,29.997 26.000,29.997 ZM26.000,37.998 C26.552,37.998 27.000,38.446 27.000,38.998 C27.000,39.550 26.552,39.997 26.000,39.997 C25.447,39.997 25.000,39.550 25.000,38.998 C25.000,38.446 25.447,37.998 26.000,37.998 ZM26.000,44.997 C26.552,44.997 27.000,45.445 27.000,45.997 C27.000,46.550 26.552,46.998 26.000,46.998 C25.447,46.998 25.000,46.550 25.000,45.997 C25.000,45.445 25.447,44.997 26.000,44.997 ZM26.000,52.997 C26.552,52.997 27.000,53.445 27.000,53.997 C27.000,54.550 26.552,54.998 26.000,54.998 C25.447,54.998 25.000,54.550 25.000,53.997 C25.000,53.445 25.447,52.997 26.000,52.997 ZM33.000,29.997 C33.552,29.997 34.000,30.445 34.000,30.997 C34.000,31.549 33.552,31.998 33.000,31.998 C32.448,31.998 32.000,31.549 32.000,30.997 C32.000,30.445 32.448,29.997 33.000,29.997 ZM33.000,37.998 C33.552,37.998 34.000,38.446 34.000,38.998 C34.000,39.550 33.552,39.997 33.000,39.997 C32.448,39.997 32.000,39.550 32.000,38.998 C32.000,38.446 32.448,37.998 33.000,37.998 ZM33.000,44.997 C33.552,44.997 34.000,45.445 34.000,45.997 C34.000,46.550 33.552,46.998 33.000,46.998 C32.448,46.998 32.000,46.550 32.000,45.997 C32.000,45.445 32.448,44.997 33.000,44.997 ZM33.000,52.997 C33.552,52.997 34.000,53.445 34.000,53.997 C34.000,54.550 33.552,54.998 33.000,54.998 C32.448,54.998 32.000,54.550 32.000,53.997 C32.000,53.445 32.448,52.997 33.000,52.997 ZM40.000,29.997 C40.552,29.997 41.000,30.445 41.000,30.997 C41.000,31.549 40.552,31.998 40.000,31.998 C39.448,31.998 39.000,31.549 39.000,30.997 C39.000,30.445 39.448,29.997 40.000,29.997 ZM40.000,37.998 C40.552,37.998 41.000,38.446 41.000,38.998 C41.000,39.550 40.552,39.997 40.000,39.997 C39.448,39.997 39.000,39.550 39.000,38.998 C39.000,38.446 39.448,37.998 40.000,37.998 ZM40.000,44.997 C40.552,44.997 41.000,45.445 41.000,45.997 C41.000,46.550 40.552,46.998 40.000,46.998 C39.448,46.998 39.000,46.550 39.000,45.997 C39.000,45.445 39.448,44.997 40.000,44.997 ZM40.000,52.997 C40.552,52.997 41.000,53.445 41.000,53.997 C41.000,54.550 40.552,54.998 40.000,54.998 C39.448,54.998 39.000,54.550 39.000,53.997 C39.000,53.445 39.448,52.997 40.000,52.997 ZM47.000,29.997 C47.552,29.997 48.000,30.445 48.000,30.997 C48.000,31.549 47.552,31.998 47.000,31.998 C46.447,31.998 46.000,31.549 46.000,30.997 C46.000,30.445 46.447,29.997 47.000,29.997 ZM47.000,37.998 C47.552,37.998 48.000,38.446 48.000,38.998 C48.000,39.550 47.552,39.997 47.000,39.997 C46.447,39.997 46.000,39.550 46.000,38.998 C46.000,38.446 46.447,37.998 47.000,37.998 ZM47.000,44.997 C47.552,44.997 48.000,45.445 48.000,45.997 C48.000,46.550 47.552,46.998 47.000,46.998 C46.447,46.998 46.000,46.550 46.000,45.997 C46.000,45.445 46.447,44.997 47.000,44.997 ZM54.000,29.997 C54.552,29.997 55.000,30.445 55.000,30.997 C55.000,31.549 54.552,31.998 54.000,31.998 C53.447,31.998 53.000,31.549 53.000,30.997 C53.000,30.445 53.447,29.997 54.000,29.997 ZM54.000,37.998 C54.552,37.998 55.000,38.446 55.000,38.998 C55.000,39.550 54.552,39.997 54.000,39.997 C53.447,39.997 53.000,39.550 53.000,38.998 C53.000,38.446 53.447,37.998 54.000,37.998 ZM54.000,44.997 C54.552,44.997 55.000,45.445 55.000,45.997 C55.000,46.550 54.552,46.998 54.000,46.998 C53.447,46.998 53.000,46.550 53.000,45.997 C53.000,45.445 53.447,44.997 54.000,44.997 Z"/>
</svg>