<svg 
 xmlns="http://www.w3.org/2000/svg"
 xmlns:xlink="http://www.w3.org/1999/xlink"
 width="66px" height="66px">
<path fill-rule="evenodd"  stroke="rgb(55, 97, 170)" stroke-width="6px" stroke-linecap="butt" stroke-linejoin="miter" fill="rgb(55, 97, 170)"
 d="M58.708,59.998 L48.204,59.998 C47.515,59.998 46.912,59.393 46.912,58.702 L46.912,58.011 C46.912,54.643 49.409,51.966 52.595,51.535 C50.615,51.189 49.065,49.461 49.065,47.389 C49.065,45.057 50.959,43.156 53.284,43.156 C55.609,43.156 57.503,45.057 57.503,47.389 C57.503,49.461 56.039,51.189 54.059,51.535 C57.331,51.966 59.828,54.730 60.000,58.011 L60.000,58.702 C60.000,59.393 59.397,59.998 58.708,59.998 ZM55.695,47.389 C55.695,46.006 54.575,44.884 53.198,44.884 C51.820,44.884 50.701,46.006 50.701,47.389 C50.701,48.771 51.820,49.893 53.198,49.893 C54.575,49.893 55.695,48.771 55.695,47.389 ZM58.106,58.011 C58.106,55.335 55.953,53.175 53.284,53.175 C50.615,53.175 48.462,55.335 48.462,58.011 L48.462,58.270 L58.106,58.270 L58.106,58.270 L58.106,58.011 ZM57.072,23.639 L34.083,23.639 C32.963,23.639 32.016,22.688 32.016,21.566 L32.016,19.580 L25.042,20.788 C24.612,20.875 24.267,20.616 24.095,20.356 C23.923,20.012 24.009,19.580 24.267,19.320 L31.930,12.411 L31.930,5.071 C31.930,3.948 32.878,2.998 33.997,2.998 L56.986,2.998 C58.106,2.998 58.967,3.948 59.139,5.071 L59.139,21.566 C59.139,22.688 58.192,23.639 57.072,23.639 ZM57.245,5.071 C57.245,4.897 57.158,4.725 56.900,4.725 L33.997,4.725 C33.825,4.725 33.738,4.897 33.652,5.071 L33.652,12.843 C33.652,13.016 33.566,13.275 33.394,13.449 L27.625,18.544 L32.619,17.679 C33.222,17.593 33.652,18.025 33.652,18.544 L33.652,21.653 C33.652,21.825 33.825,21.998 33.997,21.998 L56.900,21.998 C57.072,21.998 57.245,21.825 57.245,21.653 L57.245,5.071 ZM54.403,18.372 L37.613,18.372 C37.183,18.372 36.752,18.025 36.752,17.507 C36.752,16.989 37.096,16.644 37.613,16.644 L54.403,16.644 C54.920,16.644 55.264,16.989 55.264,17.507 C55.264,18.025 54.920,18.372 54.403,18.372 ZM54.403,14.225 L37.613,14.225 C37.183,14.225 36.752,13.879 36.752,13.361 C36.752,12.843 37.096,12.498 37.613,12.498 L54.403,12.498 C54.920,12.498 55.264,12.843 55.264,13.361 C55.264,13.879 54.920,14.225 54.403,14.225 ZM54.403,10.080 L37.613,10.080 C37.183,10.080 36.752,9.734 36.752,9.216 C36.752,8.699 37.096,8.353 37.613,8.353 L54.403,8.353 C54.920,8.353 55.264,8.699 55.264,9.216 C55.264,9.734 54.920,10.080 54.403,10.080 ZM14.882,25.020 C11.007,25.020 7.908,21.911 7.908,18.025 C7.908,14.138 11.007,11.030 14.882,11.030 C18.757,11.030 21.856,14.138 21.856,18.025 C21.856,21.911 18.757,25.020 14.882,25.020 ZM14.882,12.843 C11.954,12.843 9.630,15.175 9.630,18.111 C9.630,21.048 11.954,23.380 14.882,23.380 C17.809,23.380 20.134,20.962 20.134,18.111 C20.134,15.175 17.809,12.843 14.882,12.843 ZM19.273,26.143 C23.062,26.143 26.161,29.252 26.161,33.052 L26.161,38.838 C26.161,39.530 25.559,40.135 24.870,40.135 L5.238,40.135 C4.550,40.135 3.947,39.530 3.861,38.838 L3.861,33.052 C3.861,29.252 6.961,26.143 10.749,26.143 L19.273,26.143 ZM5.669,33.052 L5.669,38.407 L24.525,38.407 L24.525,33.052 C24.525,30.202 22.201,27.870 19.359,27.870 L10.835,27.870 C7.994,27.870 5.669,30.202 5.669,33.052 ZM8.769,51.535 C6.788,51.189 5.238,49.461 5.238,47.389 C5.238,45.057 7.133,43.156 9.458,43.156 C11.782,43.156 13.677,45.057 13.677,47.389 C13.677,49.461 12.213,51.189 10.232,51.535 C13.504,51.966 16.087,54.730 16.087,58.011 L16.087,58.702 C16.087,59.393 15.485,59.998 14.796,59.998 L4.291,59.998 C3.603,59.998 3.000,59.393 3.000,58.702 L3.000,58.011 C3.000,54.730 5.497,51.966 8.769,51.535 ZM11.868,47.389 C11.868,46.006 10.749,44.884 9.371,44.884 C7.994,44.884 6.874,46.006 6.874,47.389 C6.874,48.771 7.994,49.893 9.371,49.893 C10.749,49.893 11.868,48.771 11.868,47.389 ZM4.722,58.270 L14.365,58.270 L14.365,58.270 L14.365,58.011 C14.365,55.335 12.213,53.175 9.544,53.175 C6.874,53.175 4.722,55.335 4.722,58.011 L4.722,58.270 ZM23.406,51.535 C21.426,51.189 19.876,49.461 19.876,47.389 C19.876,45.057 21.770,43.156 24.095,43.156 C26.420,43.156 28.314,45.057 28.314,47.389 C28.314,49.461 26.850,51.189 24.870,51.535 C28.142,51.966 30.639,54.730 30.811,58.011 L30.811,58.702 C30.811,59.393 30.208,59.998 29.520,59.998 L19.015,59.998 C18.326,59.998 17.724,59.393 17.724,58.702 L17.724,58.011 C17.724,54.643 20.220,51.966 23.406,51.535 ZM26.506,47.389 C26.506,46.006 25.386,44.884 24.009,44.884 C22.631,44.884 21.512,46.006 21.512,47.389 C21.512,48.771 22.631,49.893 24.009,49.893 C25.386,49.893 26.506,48.771 26.506,47.389 ZM19.273,58.270 L28.917,58.270 L28.917,58.270 L28.917,58.011 C28.917,55.335 26.764,53.175 24.095,53.175 C21.426,53.175 19.273,55.335 19.273,58.011 L19.273,58.270 ZM30.639,40.307 C30.639,36.938 33.136,34.261 36.322,33.830 C34.341,33.484 32.791,31.757 32.791,29.684 C32.791,27.353 34.686,25.453 37.010,25.453 C39.335,25.453 41.229,27.353 41.229,29.684 C41.229,31.757 39.766,33.484 37.785,33.830 C41.057,34.175 43.554,36.938 43.554,40.307 L43.554,40.997 C43.554,41.688 42.952,42.293 42.435,42.293 L31.930,42.293 C31.242,42.293 30.639,41.688 30.639,40.997 L30.639,40.307 ZM39.421,29.684 C39.421,28.303 38.302,27.180 36.924,27.180 C35.547,27.180 34.427,28.303 34.427,29.684 C34.427,31.066 35.547,32.189 36.924,32.189 C38.302,32.189 39.421,31.066 39.421,29.684 ZM32.189,40.565 L41.832,40.565 L41.832,40.565 L41.832,40.307 C41.832,37.630 39.680,35.470 37.010,35.470 C34.341,35.470 32.189,37.630 32.189,40.307 L32.189,40.565 ZM37.958,51.535 C35.977,51.189 34.427,49.461 34.427,47.389 C34.427,45.057 36.322,43.156 38.646,43.156 C40.971,43.156 42.865,45.057 42.865,47.389 C42.865,49.461 41.402,51.189 39.421,51.535 C42.693,51.966 45.276,54.730 45.362,58.011 L45.362,58.702 C45.362,59.393 44.760,59.998 44.071,59.998 L33.566,59.998 C32.878,59.998 32.275,59.393 32.275,58.702 L32.275,58.011 C32.275,54.643 34.772,51.966 37.958,51.535 ZM41.057,47.389 C41.057,46.006 39.938,44.884 38.560,44.884 C37.183,44.884 36.063,46.006 36.063,47.389 C36.063,48.771 37.183,49.893 38.560,49.893 C39.938,49.893 41.057,48.771 41.057,47.389 ZM33.911,58.270 L43.554,58.270 L43.554,58.270 L43.554,58.011 C43.554,55.335 41.402,53.175 38.733,53.175 C36.063,53.175 33.911,55.335 33.911,58.011 L33.911,58.270 ZM45.190,40.307 C45.190,36.938 47.687,34.261 50.873,33.830 C48.893,33.484 47.343,31.757 47.343,29.684 C47.343,27.353 49.237,25.453 51.562,25.453 C53.887,25.453 55.781,27.353 55.781,29.684 C55.781,31.757 54.317,33.484 52.337,33.830 C55.609,34.175 58.106,36.938 58.106,40.307 L58.106,40.997 C58.106,41.688 57.589,42.293 56.986,42.293 L46.482,42.293 C45.793,42.293 45.190,41.688 45.190,40.997 L45.190,40.307 ZM53.973,29.684 C53.973,28.303 52.853,27.180 51.476,27.180 C50.098,27.180 48.979,28.303 48.979,29.684 C48.979,31.066 50.098,32.189 51.476,32.189 C52.853,32.189 53.973,31.066 53.973,29.684 ZM46.826,40.565 L56.384,40.565 L56.470,40.565 L56.470,40.565 L56.470,40.307 C56.470,37.630 54.317,35.470 51.648,35.470 C48.979,35.470 46.826,37.630 46.826,40.307 L46.826,40.565 Z"/>
</svg>