<svg 
 xmlns="http://www.w3.org/2000/svg"
 xmlns:xlink="http://www.w3.org/1999/xlink"
 width="53px" height="53px">
<path fill-rule="evenodd"  fill="rgb(0, 0, 0)"
 d="M52.116,7.064 L45.933,7.064 L45.933,48.581 C45.933,51.017 43.952,52.999 41.517,52.999 L7.950,52.999 L4.417,52.999 C1.981,52.999 -0.000,51.017 -0.000,48.581 L-0.000,46.814 C-0.000,46.325 0.396,45.931 0.883,45.931 L7.067,45.931 L7.067,4.414 C7.067,1.979 9.048,-0.002 11.483,-0.002 L48.583,-0.002 C51.019,-0.002 53.000,1.979 53.000,4.414 L53.000,6.181 C53.000,6.669 52.605,7.064 52.116,7.064 ZM1.767,48.581 C1.767,50.043 2.955,51.232 4.417,51.232 L7.950,51.232 L37.985,51.232 C37.429,50.493 37.100,49.575 37.100,48.581 L37.100,47.698 L1.767,47.698 L1.767,48.581 ZM11.483,1.765 C10.022,1.765 8.833,2.954 8.833,4.414 L8.833,45.931 L37.983,45.931 C38.472,45.931 38.867,46.325 38.867,46.814 L38.867,48.581 C38.867,50.043 40.055,51.232 41.517,51.232 L41.517,51.232 C42.978,51.232 44.167,50.043 44.167,48.581 L44.167,6.183 C44.167,6.182 44.166,6.182 44.166,6.181 L44.166,4.414 C44.166,4.410 44.168,4.406 44.168,4.402 C44.168,4.126 44.200,3.858 44.249,3.596 C44.265,3.510 44.291,3.428 44.313,3.344 C44.357,3.166 44.409,2.992 44.475,2.823 C44.510,2.733 44.548,2.646 44.589,2.559 C44.663,2.401 44.746,2.249 44.837,2.102 C44.886,2.024 44.932,1.945 44.985,1.870 C45.009,1.836 45.027,1.798 45.052,1.765 L11.483,1.765 ZM51.233,4.414 C51.233,2.954 50.044,1.765 48.583,1.765 C47.122,1.765 45.933,2.954 45.933,4.414 L45.933,5.298 L51.233,5.298 L51.233,4.414 ZM38.867,43.281 C38.867,43.608 38.687,43.907 38.400,44.060 C38.269,44.129 38.126,44.164 37.983,44.164 C37.812,44.164 37.640,44.115 37.493,44.017 L35.333,42.576 L33.173,44.017 C32.903,44.196 32.553,44.214 32.267,44.060 C31.979,43.907 31.800,43.608 31.800,43.281 L31.800,38.369 C30.723,37.399 30.033,36.008 30.033,34.448 C30.033,31.525 32.410,29.148 35.333,29.148 C38.256,29.148 40.633,31.525 40.633,34.448 C40.633,36.008 39.943,37.398 38.867,38.369 L38.867,43.281 ZM33.566,41.630 L34.843,40.780 C35.140,40.581 35.526,40.581 35.823,40.780 L37.100,41.630 L37.100,39.422 C36.545,39.620 35.956,39.747 35.333,39.747 C34.711,39.747 34.122,39.620 33.566,39.422 L33.566,41.630 ZM35.333,30.915 C33.384,30.915 31.800,32.500 31.800,34.448 C31.800,36.397 33.384,37.981 35.333,37.981 C37.282,37.981 38.867,36.397 38.866,34.448 C38.866,32.500 37.282,30.915 35.333,30.915 ZM12.367,24.731 L40.633,24.731 L40.633,26.498 L12.367,26.498 L12.367,24.731 ZM35.333,19.431 L40.633,19.431 L40.633,21.197 L35.333,21.197 L35.333,19.431 ZM12.367,14.132 L40.633,14.132 L40.633,15.899 L12.367,15.899 L12.367,14.132 ZM20.316,8.831 L31.800,8.831 L31.800,10.598 L20.316,10.598 L20.316,8.831 ZM31.800,21.197 L12.367,21.197 L12.367,19.431 L31.800,19.431 L31.800,21.197 ZM22.966,31.797 L12.367,31.797 L12.367,30.031 L22.966,30.031 L22.966,31.797 ZM16.783,36.215 L12.367,36.215 L12.367,34.448 L16.783,34.448 L16.783,36.215 ZM22.966,36.215 L20.316,36.215 L20.316,34.448 L22.966,34.448 L22.966,36.215 Z"/>
</svg>