<svg 
 xmlns="http://www.w3.org/2000/svg"
 xmlns:xlink="http://www.w3.org/1999/xlink"
 width="22px" height="22px">
<path fill-rule="evenodd"  fill="rgb(0, 0, 0)"
 d="M21.339,14.955 C21.803,14.380 22.026,13.764 21.997,13.129 C21.969,12.429 21.647,11.883 21.382,11.547 C21.690,10.801 21.808,9.628 20.781,8.717 C20.028,8.050 18.751,7.750 16.981,7.834 C15.736,7.889 14.695,8.115 14.652,8.123 L14.647,8.123 C14.411,8.165 14.160,8.215 13.904,8.271 C13.885,7.976 13.938,7.245 14.496,5.598 C15.159,3.638 15.121,2.138 14.373,1.135 C13.587,0.081 12.333,-0.001 11.964,-0.001 C11.609,-0.001 11.283,0.141 11.051,0.404 C10.525,0.997 10.587,2.092 10.653,2.598 C10.028,4.227 8.277,8.220 6.796,9.329 C6.768,9.347 6.744,9.370 6.720,9.393 C6.285,9.840 5.991,10.323 5.793,10.746 C5.513,10.599 5.196,10.516 4.856,10.516 L1.969,10.516 C0.880,10.516 -0.000,11.376 -0.000,12.429 L-0.000,19.906 C-0.000,20.964 0.885,21.819 1.969,21.819 L4.856,21.819 C5.277,21.819 5.670,21.690 5.991,21.470 L7.104,21.599 C7.274,21.622 10.303,21.994 13.412,21.934 C13.975,21.976 14.505,21.999 14.998,21.999 C15.845,21.999 16.583,21.934 17.198,21.805 C18.646,21.507 19.636,20.909 20.137,20.030 C20.521,19.358 20.521,18.691 20.459,18.268 C21.401,17.440 21.567,16.524 21.533,15.880 C21.514,15.507 21.429,15.190 21.339,14.955 ZM1.969,20.577 C1.585,20.577 1.278,20.273 1.278,19.906 L1.278,12.425 C1.278,12.052 1.590,11.754 1.969,11.754 L4.856,11.754 C5.239,11.754 5.547,12.058 5.547,12.425 L5.547,19.901 C5.547,20.273 5.234,20.573 4.856,20.573 L1.969,20.573 L1.969,20.577 ZM20.128,14.417 C19.929,14.619 19.891,14.928 20.043,15.167 C20.043,15.172 20.237,15.494 20.260,15.936 C20.293,16.538 19.995,17.072 19.371,17.527 C19.148,17.693 19.058,17.978 19.153,18.236 C19.153,18.240 19.356,18.847 19.025,19.423 C18.708,19.975 18.003,20.370 16.933,20.591 C16.077,20.771 14.912,20.803 13.483,20.692 C13.464,20.692 13.441,20.692 13.417,20.692 C10.374,20.757 7.298,20.370 7.265,20.366 L7.260,20.366 L6.782,20.310 C6.810,20.181 6.824,20.044 6.824,19.906 L6.824,12.425 C6.824,12.227 6.791,12.034 6.734,11.854 C6.820,11.547 7.056,10.861 7.615,10.276 C9.740,8.638 11.817,3.113 11.907,2.874 C11.945,2.777 11.955,2.672 11.936,2.567 C11.855,2.051 11.884,1.421 11.997,1.232 C12.248,1.237 12.925,1.306 13.332,1.852 C13.814,2.502 13.796,3.661 13.275,5.197 C12.480,7.540 12.414,8.772 13.043,9.315 C13.355,9.586 13.772,9.600 14.075,9.495 C14.364,9.430 14.638,9.375 14.898,9.334 C14.917,9.329 14.941,9.324 14.960,9.320 C16.413,9.011 19.016,8.823 19.920,9.624 C20.686,10.305 20.142,11.206 20.080,11.303 C19.905,11.560 19.957,11.896 20.194,12.103 C20.199,12.108 20.696,12.563 20.719,13.175 C20.738,13.584 20.540,14.003 20.128,14.417 Z"/>
</svg>