<svg 
 xmlns="http://www.w3.org/2000/svg"
 xmlns:xlink="http://www.w3.org/1999/xlink"
 width="62px" height="62px">
<path fill-rule="evenodd"  stroke="rgb(55, 97, 170)" stroke-width="6px" stroke-linecap="butt" stroke-linejoin="miter" fill="rgb(0, 0, 0)"
 d="M53.884,39.793 C51.090,46.310 46.341,51.080 39.772,53.883 C36.490,55.284 33.049,55.999 29.456,55.999 C25.863,55.999 22.450,55.291 19.170,53.883 C12.656,51.087 7.886,46.321 5.086,39.793 C3.684,36.521 3.000,33.066 3.000,29.470 C3.000,25.875 3.684,22.448 5.086,19.178 C7.886,12.649 12.655,7.912 19.170,5.116 C22.449,3.708 25.863,2.999 29.456,2.999 C33.050,2.999 36.490,3.715 39.773,5.116 C46.342,7.919 51.090,12.660 53.884,19.178 C55.292,22.460 56.000,25.875 56.000,29.470 C56.000,33.066 55.291,36.510 53.884,39.793 ZM49.654,17.815 C47.567,14.249 44.723,11.414 41.134,9.320 C37.567,7.239 33.658,6.188 29.456,6.188 C25.255,6.188 21.372,7.232 17.808,9.320 C14.244,11.408 11.394,14.242 9.318,17.815 C7.249,21.375 6.217,25.266 6.217,29.470 C6.217,32.631 6.813,35.681 8.043,38.546 C9.276,41.421 10.925,43.924 12.997,45.997 C15.070,48.070 17.547,49.708 20.416,50.955 C23.285,52.202 26.299,52.810 29.457,52.810 C33.658,52.810 37.567,51.761 41.135,49.679 C44.724,47.585 47.574,44.754 49.654,41.184 C51.747,37.592 52.783,33.674 52.783,29.470 C52.783,25.266 51.740,21.381 49.654,17.815 ZM37.020,39.676 L28.355,31.007 C28.008,30.659 27.863,30.224 27.921,29.702 C27.921,29.616 27.863,29.499 27.863,29.470 L27.863,14.220 C27.863,13.321 28.616,12.596 29.456,12.596 C30.355,12.596 31.137,13.321 31.137,14.220 L31.137,29.238 L39.251,37.415 C39.874,38.042 39.918,39.009 39.251,39.676 C38.672,40.256 37.600,40.256 37.020,39.676 Z"/>
</svg>