<svg 
 xmlns="http://www.w3.org/2000/svg"
 xmlns:xlink="http://www.w3.org/1999/xlink"
 width="22px" height="18px">
<path fill-rule="evenodd"  fill="rgb(0, 0, 0)"
 d="M20.565,3.788 L16.261,3.788 L16.261,1.420 C16.261,0.636 15.617,-0.001 14.826,-0.001 L7.174,-0.001 C6.383,-0.001 5.739,0.636 5.739,1.420 L5.739,3.788 L1.435,3.788 C0.644,3.788 -0.000,4.426 -0.000,5.209 L-0.000,16.578 C-0.000,17.361 0.644,17.999 1.435,17.999 L20.565,17.999 C21.356,17.999 22.000,17.361 22.000,16.578 L22.000,5.209 C22.000,4.426 21.356,3.788 20.565,3.788 ZM6.696,1.420 C6.696,1.159 6.910,0.946 7.174,0.946 L14.826,0.946 C15.090,0.946 15.304,1.159 15.304,1.420 L15.304,3.788 L6.696,3.788 L6.696,1.420 ZM21.043,16.578 C21.043,16.839 20.829,17.052 20.565,17.052 L1.435,17.052 C1.171,17.052 0.957,16.839 0.957,16.578 L0.957,10.725 C1.746,11.693 2.953,12.315 4.304,12.315 L8.609,12.315 L8.609,13.736 C8.609,13.998 8.823,14.209 9.087,14.209 L12.913,14.209 C13.177,14.209 13.391,13.998 13.391,13.736 L13.391,12.315 L17.696,12.315 C19.047,12.315 20.254,11.693 21.043,10.725 L21.043,16.578 ZM9.565,13.262 L9.565,10.420 L12.435,10.420 L12.435,13.262 L9.565,13.262 ZM21.043,8.051 C21.043,9.880 19.542,11.367 17.696,11.367 L13.391,11.367 L13.391,9.946 C13.391,9.684 13.177,9.473 12.913,9.473 L9.087,9.473 C8.823,9.473 8.609,9.684 8.609,9.946 L8.609,11.367 L4.304,11.367 C2.458,11.367 0.957,9.880 0.957,8.051 L0.957,5.209 C0.957,4.948 1.171,4.736 1.435,4.736 L20.565,4.736 C20.829,4.736 21.043,4.948 21.043,5.209 L21.043,8.051 Z"/>
</svg>