<svg 
 xmlns="http://www.w3.org/2000/svg"
 xmlns:xlink="http://www.w3.org/1999/xlink"
 width="17px" height="22px">
<path fill-rule="evenodd"  fill="rgb(0, 0, 0)"
 d="M15.111,21.999 L1.889,21.999 C0.847,21.999 -0.000,21.177 -0.000,20.166 L-0.000,8.707 C-0.000,8.454 0.211,8.249 0.472,8.249 L1.889,8.249 L1.889,6.416 C1.889,2.877 4.855,-0.001 8.500,-0.001 C12.145,-0.001 15.111,2.877 15.111,6.416 L15.111,8.249 L16.528,8.249 C16.789,8.249 17.000,8.454 17.000,8.707 L17.000,20.166 C17.000,21.177 16.153,21.999 15.111,21.999 ZM14.167,6.416 C14.167,3.383 11.625,0.916 8.500,0.916 C5.375,0.916 2.833,3.383 2.833,6.416 L2.833,8.249 L3.778,8.249 L3.778,6.416 C3.778,3.888 5.896,1.832 8.500,1.832 C11.104,1.832 13.222,3.888 13.222,6.416 L13.222,8.249 L14.167,8.249 L14.167,6.416 ZM4.722,6.416 L4.722,8.249 L12.278,8.249 L12.278,6.416 C12.278,4.394 10.583,2.749 8.500,2.749 C6.417,2.749 4.722,4.394 4.722,6.416 ZM16.055,9.166 L0.944,9.166 L0.944,20.166 C0.944,20.671 1.368,21.082 1.889,21.082 L15.111,21.082 C15.632,21.082 16.055,20.671 16.055,20.166 L16.055,9.166 ZM9.616,15.223 L9.914,17.823 C9.929,17.952 9.886,18.083 9.796,18.180 C9.707,18.277 9.579,18.332 9.444,18.332 L7.555,18.332 C7.421,18.332 7.293,18.277 7.204,18.180 C7.114,18.082 7.071,17.952 7.086,17.823 L7.384,15.223 C6.900,14.882 6.611,14.342 6.611,13.749 C6.611,12.738 7.458,11.916 8.500,11.916 C9.542,11.916 10.389,12.738 10.389,13.749 C10.389,14.342 10.100,14.882 9.616,15.223 ZM8.500,12.832 C7.979,12.832 7.555,13.244 7.556,13.749 C7.556,14.100 7.761,14.415 8.092,14.571 C8.273,14.656 8.378,14.841 8.356,15.034 L8.083,17.416 L8.917,17.416 L8.644,15.034 C8.622,14.841 8.727,14.656 8.908,14.571 C9.239,14.415 9.444,14.100 9.444,13.749 C9.444,13.244 9.021,12.832 8.500,12.832 Z"/>
</svg>