<svg 
 xmlns="http://www.w3.org/2000/svg"
 xmlns:xlink="http://www.w3.org/1999/xlink"
 width="53px" height="53px">
<path fill-rule="evenodd"  fill="rgb(0, 0, 0)"
 d="M51.799,52.998 L42.032,52.998 C41.391,52.998 40.831,52.435 40.831,51.793 L40.831,51.150 C40.831,48.018 43.152,45.529 46.115,45.128 C44.273,44.807 42.832,43.201 42.832,41.273 C42.832,39.104 44.594,37.338 46.755,37.338 C48.917,37.338 50.678,39.104 50.678,41.273 C50.678,43.201 49.317,44.807 47.476,45.128 C50.518,45.529 52.840,48.098 53.000,51.150 L53.000,51.793 C53.000,52.435 52.439,52.998 51.799,52.998 ZM48.997,41.273 C48.997,39.988 47.956,38.944 46.675,38.944 C45.394,38.944 44.353,39.988 44.353,41.273 C44.353,42.558 45.394,43.602 46.675,43.602 C47.956,43.602 48.997,42.558 48.997,41.273 ZM51.239,51.150 C51.239,48.661 49.237,46.653 46.755,46.653 C44.273,46.653 42.272,48.661 42.272,51.150 L42.272,51.392 L51.238,51.392 L51.239,51.392 L51.239,51.150 ZM50.278,19.189 L28.902,19.189 C27.861,19.189 26.980,18.307 26.980,17.263 L26.980,15.416 L20.495,16.541 C20.095,16.620 19.775,16.379 19.614,16.138 C19.454,15.817 19.534,15.416 19.775,15.175 L26.900,8.750 L26.900,1.925 C26.900,0.881 27.781,-0.003 28.821,-0.003 L50.198,-0.003 C51.239,-0.003 52.039,0.881 52.199,1.925 L52.199,17.263 C52.199,18.307 51.319,19.189 50.278,19.189 ZM50.438,1.925 C50.438,1.764 50.358,1.604 50.118,1.604 L28.821,1.604 C28.661,1.604 28.581,1.764 28.501,1.925 L28.501,9.152 C28.501,9.314 28.421,9.553 28.261,9.714 L22.897,14.453 L27.541,13.649 C28.101,13.569 28.501,13.971 28.501,14.453 L28.501,17.343 C28.501,17.503 28.661,17.663 28.821,17.663 L50.118,17.663 C50.278,17.663 50.438,17.503 50.438,17.343 L50.438,1.925 ZM47.796,14.292 L32.184,14.292 C31.784,14.292 31.383,13.971 31.383,13.488 C31.383,13.006 31.704,12.685 32.184,12.685 L47.796,12.685 C48.276,12.685 48.596,13.006 48.596,13.488 C48.596,13.971 48.276,14.292 47.796,14.292 ZM47.796,10.436 L32.184,10.436 C31.784,10.436 31.383,10.116 31.383,9.634 C31.383,9.152 31.704,8.832 32.184,8.832 L47.796,8.832 C48.276,8.832 48.596,9.152 48.596,9.634 C48.596,10.116 48.276,10.436 47.796,10.436 ZM47.796,6.582 L32.184,6.582 C31.784,6.582 31.383,6.262 31.383,5.779 C31.383,5.298 31.704,4.976 32.184,4.976 L47.796,4.976 C48.276,4.976 48.596,5.298 48.596,5.779 C48.596,6.262 48.276,6.582 47.796,6.582 ZM11.048,20.475 C7.445,20.475 4.563,17.584 4.563,13.971 C4.563,10.357 7.445,7.466 11.048,7.466 C14.651,7.466 17.533,10.357 17.533,13.971 C17.533,17.584 14.651,20.475 11.048,20.475 ZM11.048,9.152 C8.326,9.152 6.164,11.320 6.164,14.050 C6.164,16.781 8.326,18.948 11.048,18.948 C13.770,18.948 15.932,16.701 15.932,14.050 C15.932,11.320 13.770,9.152 11.048,9.152 ZM15.131,21.519 C18.654,21.519 21.536,24.409 21.536,27.943 L21.536,33.324 C21.536,33.965 20.975,34.528 20.335,34.528 L2.081,34.528 C1.441,34.528 0.880,33.965 0.800,33.324 L0.800,27.943 C0.800,24.409 3.682,21.519 7.205,21.519 L15.131,21.519 ZM2.482,27.942 L2.482,32.923 L20.015,32.923 L20.015,27.942 C20.015,25.293 17.853,23.124 15.211,23.124 L7.285,23.124 C4.643,23.124 2.482,25.293 2.482,27.942 ZM5.364,45.128 C3.522,44.807 2.081,43.201 2.081,41.273 C2.081,39.104 3.843,37.338 6.004,37.338 C8.166,37.338 9.927,39.104 9.927,41.273 C9.927,43.201 8.566,44.807 6.725,45.128 C9.767,45.529 12.169,48.098 12.169,51.150 L12.169,51.793 C12.169,52.435 11.608,52.998 10.968,52.998 L1.200,52.998 C0.560,52.998 -0.000,52.435 -0.000,51.793 L-0.000,51.150 C-0.000,48.098 2.321,45.529 5.364,45.128 ZM8.246,41.273 C8.246,39.988 7.205,38.944 5.924,38.944 C4.643,38.944 3.602,39.988 3.602,41.273 C3.602,42.558 4.643,43.602 5.924,43.602 C7.205,43.602 8.246,42.558 8.246,41.273 ZM1.601,51.392 L10.568,51.392 L10.568,51.392 L10.568,51.150 C10.568,48.661 8.566,46.653 6.084,46.653 C3.602,46.653 1.601,48.661 1.601,51.150 L1.601,51.392 ZM18.974,45.128 C17.133,44.807 15.692,43.201 15.692,41.273 C15.692,39.104 17.453,37.338 19.614,37.338 C21.776,37.338 23.538,39.104 23.538,41.273 C23.538,43.201 22.176,44.807 20.335,45.128 C23.377,45.529 25.699,48.098 25.859,51.150 L25.859,51.793 C25.859,52.435 25.299,52.998 24.658,52.998 L14.891,52.998 C14.251,52.998 13.690,52.435 13.690,51.793 L13.690,51.150 C13.690,48.018 16.012,45.529 18.974,45.128 ZM21.856,41.273 C21.856,39.988 20.815,38.944 19.534,38.944 C18.253,38.944 17.213,39.988 17.213,41.273 C17.213,42.558 18.253,43.602 19.534,43.602 C20.815,43.602 21.856,42.558 21.856,41.273 ZM15.131,51.392 L24.098,51.392 L24.098,51.392 L24.098,51.150 C24.098,48.661 22.096,46.653 19.614,46.653 C17.133,46.653 15.131,48.661 15.131,51.150 L15.131,51.392 ZM25.699,34.688 C25.699,31.557 28.021,29.067 30.983,28.665 C29.142,28.344 27.701,26.738 27.701,24.811 C27.701,22.643 29.462,20.877 31.624,20.877 C33.785,20.877 35.547,22.643 35.547,24.811 C35.547,26.738 34.186,28.344 32.344,28.665 C35.387,28.987 37.708,31.557 37.708,34.688 L37.708,35.331 C37.708,35.974 37.148,36.535 36.668,36.535 L26.900,36.535 C26.260,36.535 25.699,35.973 25.699,35.331 L25.699,34.688 ZM33.865,24.811 C33.865,23.527 32.825,22.483 31.544,22.483 C30.263,22.483 29.222,23.527 29.222,24.811 C29.222,26.096 30.263,27.140 31.544,27.140 C32.825,27.140 33.865,26.096 33.865,24.811 ZM27.140,34.929 L36.107,34.929 L36.107,34.929 L36.107,34.688 C36.107,32.199 34.105,30.191 31.624,30.191 C29.142,30.191 27.140,32.199 27.140,34.688 L27.140,34.929 ZM32.504,45.128 C30.663,44.807 29.222,43.201 29.222,41.273 C29.222,39.104 30.983,37.338 33.145,37.338 C35.306,37.338 37.068,39.104 37.068,41.273 C37.068,43.201 35.707,44.807 33.865,45.128 C36.908,45.529 39.309,48.098 39.390,51.150 L39.390,51.793 C39.390,52.435 38.829,52.998 38.189,52.998 L28.421,52.998 C27.781,52.998 27.220,52.435 27.220,51.793 L27.220,51.150 C27.220,48.018 29.542,45.529 32.504,45.128 ZM35.386,41.273 C35.386,39.988 34.346,38.944 33.065,38.944 C31.784,38.944 30.743,39.988 30.743,41.273 C30.743,42.558 31.784,43.602 33.065,43.602 C34.346,43.602 35.386,42.558 35.386,41.273 ZM28.741,51.392 L37.708,51.392 L37.708,51.392 L37.708,51.150 C37.708,48.661 35.707,46.653 33.225,46.653 C30.743,46.653 28.741,48.661 28.741,51.150 L28.741,51.392 ZM39.229,34.688 C39.229,31.557 41.551,29.067 44.514,28.665 C42.672,28.344 41.231,26.738 41.231,24.811 C41.231,22.643 42.992,20.877 45.154,20.877 C47.315,20.877 49.077,22.643 49.077,24.811 C49.077,26.738 47.716,28.344 45.874,28.665 C48.917,28.987 51.238,31.557 51.238,34.688 L51.238,35.331 C51.238,35.974 50.758,36.535 50.198,36.535 L40.430,36.535 C39.790,36.535 39.229,35.973 39.229,35.331 L39.229,34.688 ZM47.396,24.811 C47.396,23.527 46.355,22.483 45.074,22.483 C43.793,22.483 42.752,23.527 42.752,24.811 C42.752,26.096 43.793,27.140 45.074,27.140 C46.355,27.140 47.396,26.096 47.396,24.811 ZM40.750,34.929 L49.637,34.929 L49.717,34.929 L49.717,34.929 L49.717,34.688 C49.717,32.199 47.716,30.191 45.234,30.191 C42.752,30.191 40.750,32.199 40.750,34.688 L40.750,34.929 Z"/>
</svg>