<svg 
 xmlns="http://www.w3.org/2000/svg"
 xmlns:xlink="http://www.w3.org/1999/xlink"
 width="53px" height="53px">
<path fill-rule="evenodd"  fill="rgb(0, 0, 0)"
 d="M-0.000,52.998 L-0.000,9.715 L8.612,9.715 C9.993,8.974 18.577,4.352 23.296,1.392 C24.102,0.537 25.236,-0.002 26.500,-0.002 C27.764,-0.002 28.898,0.537 29.704,1.392 C34.421,4.352 43.007,8.974 44.387,9.715 L53.000,9.715 L53.000,52.998 L-0.000,52.998 ZM29.090,3.857 C29.081,3.817 29.063,3.779 29.053,3.739 C28.924,3.272 28.687,2.906 28.472,2.666 C28.468,2.661 28.467,2.656 28.463,2.651 C27.978,2.111 27.282,1.764 26.500,1.764 C25.718,1.764 25.022,2.111 24.536,2.651 C24.532,2.656 24.531,2.661 24.527,2.666 C24.313,2.907 24.076,3.272 23.947,3.741 C23.936,3.781 23.920,3.817 23.911,3.857 C23.873,4.029 23.850,4.215 23.850,4.414 C23.850,5.876 25.039,7.065 26.500,7.065 C27.961,7.065 29.150,5.876 29.150,4.414 C29.150,4.215 29.127,4.029 29.090,3.857 ZM30.911,4.197 C30.915,4.269 30.916,4.342 30.916,4.414 C30.916,6.850 28.935,8.831 26.500,8.831 C24.064,8.831 22.083,6.850 22.083,4.414 C22.083,4.342 22.085,4.269 22.088,4.197 C18.915,6.084 14.991,8.259 12.321,9.715 L40.678,9.715 C38.009,8.259 34.085,6.084 30.911,4.197 ZM51.233,11.482 L44.166,11.482 L8.833,11.482 L1.766,11.482 L1.766,15.897 L51.233,15.897 L51.233,11.482 ZM51.233,17.664 L1.766,17.664 L1.766,51.231 L51.233,51.231 L51.233,17.664 ZM7.950,30.914 C8.438,30.914 8.833,31.310 8.833,31.798 C8.833,32.285 8.438,32.681 7.950,32.681 C7.462,32.681 7.066,32.285 7.066,31.798 C7.066,31.310 7.462,30.914 7.950,30.914 ZM7.950,37.098 C8.438,37.098 8.833,37.493 8.833,37.981 C8.833,38.469 8.438,38.864 7.950,38.864 C7.462,38.864 7.066,38.469 7.066,37.981 C7.066,37.493 7.462,37.098 7.950,37.098 ZM7.950,44.163 C8.438,44.163 8.833,44.561 8.833,45.047 C8.833,45.536 8.438,45.931 7.950,45.931 C7.462,45.931 7.066,45.536 7.066,45.047 C7.066,44.561 7.462,44.163 7.950,44.163 ZM14.133,30.914 C14.621,30.914 15.016,31.310 15.016,31.798 C15.016,32.285 14.621,32.681 14.133,32.681 C13.645,32.681 13.250,32.285 13.250,31.798 C13.250,31.310 13.645,30.914 14.133,30.914 ZM14.133,37.098 C14.621,37.098 15.016,37.493 15.016,37.981 C15.016,38.469 14.621,38.864 14.133,38.864 C13.645,38.864 13.250,38.469 13.250,37.981 C13.250,37.493 13.645,37.098 14.133,37.098 ZM14.133,44.163 C14.621,44.163 15.016,44.561 15.016,45.047 C15.016,45.536 14.621,45.931 14.133,45.931 C13.645,45.931 13.250,45.536 13.250,45.047 C13.250,44.561 13.645,44.163 14.133,44.163 ZM20.316,23.848 C20.804,23.848 21.200,24.244 21.200,24.731 C21.200,25.219 20.804,25.615 20.316,25.615 C19.829,25.615 19.433,25.219 19.433,24.731 C19.433,24.244 19.829,23.848 20.316,23.848 ZM20.316,30.914 C20.804,30.914 21.200,31.310 21.200,31.798 C21.200,32.285 20.804,32.681 20.316,32.681 C19.829,32.681 19.433,32.285 19.433,31.798 C19.433,31.310 19.829,30.914 20.316,30.914 ZM20.316,37.098 C20.804,37.098 21.200,37.493 21.200,37.981 C21.200,38.469 20.804,38.864 20.316,38.864 C19.829,38.864 19.433,38.469 19.433,37.981 C19.433,37.493 19.829,37.098 20.316,37.098 ZM20.316,44.163 C20.804,44.163 21.200,44.561 21.200,45.047 C21.200,45.536 20.804,45.931 20.316,45.931 C19.829,45.931 19.433,45.536 19.433,45.047 C19.433,44.561 19.829,44.163 20.316,44.163 ZM26.500,23.848 C26.988,23.848 27.383,24.244 27.383,24.731 C27.383,25.219 26.988,25.615 26.500,25.615 C26.012,25.615 25.616,25.219 25.616,24.731 C25.616,24.244 26.012,23.848 26.500,23.848 ZM26.500,30.914 C26.988,30.914 27.383,31.310 27.383,31.798 C27.383,32.285 26.988,32.681 26.500,32.681 C26.012,32.681 25.616,32.285 25.616,31.798 C25.616,31.310 26.012,30.914 26.500,30.914 ZM26.500,37.098 C26.988,37.098 27.383,37.493 27.383,37.981 C27.383,38.469 26.988,38.864 26.500,38.864 C26.012,38.864 25.616,38.469 25.616,37.981 C25.616,37.493 26.012,37.098 26.500,37.098 ZM26.500,44.163 C26.988,44.163 27.383,44.561 27.383,45.047 C27.383,45.536 26.988,45.931 26.500,45.931 C26.012,45.931 25.616,45.536 25.616,45.047 C25.616,44.561 26.012,44.163 26.500,44.163 ZM32.683,23.848 C33.171,23.848 33.566,24.244 33.566,24.731 C33.566,25.219 33.171,25.615 32.683,25.615 C32.195,25.615 31.800,25.219 31.800,24.731 C31.800,24.244 32.195,23.848 32.683,23.848 ZM32.683,30.914 C33.171,30.914 33.566,31.310 33.566,31.798 C33.566,32.285 33.171,32.681 32.683,32.681 C32.195,32.681 31.800,32.285 31.800,31.798 C31.800,31.310 32.195,30.914 32.683,30.914 ZM32.683,37.098 C33.171,37.098 33.566,37.493 33.566,37.981 C33.566,38.469 33.171,38.864 32.683,38.864 C32.195,38.864 31.800,38.469 31.800,37.981 C31.800,37.493 32.195,37.098 32.683,37.098 ZM32.683,44.163 C33.171,44.163 33.566,44.561 33.566,45.047 C33.566,45.536 33.171,45.931 32.683,45.931 C32.195,45.931 31.800,45.536 31.800,45.047 C31.800,44.561 32.195,44.163 32.683,44.163 ZM38.866,23.848 C39.354,23.848 39.750,24.244 39.750,24.731 C39.750,25.219 39.354,25.615 38.866,25.615 C38.379,25.615 37.983,25.219 37.983,24.731 C37.983,24.244 38.379,23.848 38.866,23.848 ZM38.866,30.914 C39.354,30.914 39.750,31.310 39.750,31.798 C39.750,32.285 39.354,32.681 38.866,32.681 C38.379,32.681 37.983,32.285 37.983,31.798 C37.983,31.310 38.379,30.914 38.866,30.914 ZM38.866,37.098 C39.354,37.098 39.750,37.493 39.750,37.981 C39.750,38.469 39.354,38.864 38.866,38.864 C38.379,38.864 37.983,38.469 37.983,37.981 C37.983,37.493 38.379,37.098 38.866,37.098 ZM45.050,23.848 C45.538,23.848 45.933,24.244 45.933,24.731 C45.933,25.219 45.538,25.615 45.050,25.615 C44.562,25.615 44.166,25.219 44.166,24.731 C44.166,24.244 44.562,23.848 45.050,23.848 ZM45.050,30.914 C45.538,30.914 45.933,31.310 45.933,31.798 C45.933,32.285 45.538,32.681 45.050,32.681 C44.562,32.681 44.166,32.285 44.166,31.798 C44.166,31.310 44.562,30.914 45.050,30.914 ZM45.050,37.098 C45.538,37.098 45.933,37.493 45.933,37.981 C45.933,38.469 45.538,38.864 45.050,38.864 C44.562,38.864 44.166,38.469 44.166,37.981 C44.166,37.493 44.562,37.098 45.050,37.098 Z"/>
</svg>