<svg 
 xmlns="http://www.w3.org/2000/svg"
 xmlns:xlink="http://www.w3.org/1999/xlink"
 width="65px" height="62px">
<path fill-rule="evenodd"  stroke="rgb(55, 97, 170)" stroke-width="6px" stroke-linecap="butt" stroke-linejoin="miter" fill="rgb(55, 97, 170)"
 d="M39.007,39.741 L39.007,38.778 C39.283,38.557 39.548,38.317 39.802,38.065 C41.839,35.850 43.122,33.061 43.470,30.088 C45.300,29.813 46.950,28.844 48.070,27.388 C49.607,25.242 49.744,22.153 48.462,18.281 C48.386,18.058 48.237,17.866 48.038,17.737 L47.455,17.349 C47.541,13.854 46.318,10.451 44.021,7.791 C41.170,4.619 36.792,3.018 30.995,2.997 C25.207,2.997 20.819,4.619 17.968,7.750 C15.671,10.409 14.448,13.813 14.534,17.307 L13.951,17.695 C13.752,17.825 13.603,18.016 13.527,18.239 C12.245,22.133 12.383,25.200 13.919,27.345 C15.035,28.813 16.685,29.792 18.519,30.078 C18.869,33.056 20.155,35.849 22.197,38.065 C22.450,38.316 22.715,38.554 22.992,38.778 L22.992,39.741 C18.933,40.515 2.727,44.273 3.002,54.950 C3.002,55.529 3.477,55.998 4.062,55.998 L57.937,55.998 C58.523,55.998 58.997,55.529 58.997,54.950 C59.273,44.273 43.067,40.515 39.007,39.741 ZM17.884,27.744 C16.983,27.445 16.198,26.879 15.636,26.122 L15.689,26.132 C14.629,24.603 14.534,22.290 15.478,19.234 L16.251,18.720 C16.577,18.506 16.756,18.132 16.718,17.747 C16.539,14.618 17.570,11.538 19.600,9.132 C21.996,6.452 25.843,5.111 30.995,5.091 C36.146,5.070 39.993,6.452 42.431,9.132 C44.462,11.538 45.492,14.618 45.314,17.747 C45.276,18.132 45.455,18.506 45.780,18.720 L46.554,19.234 C47.497,22.279 47.434,24.603 46.342,26.132 C45.777,26.890 44.988,27.457 44.084,27.755 C45.363,26.317 45.988,24.426 45.812,22.520 C45.613,21.374 45.009,20.335 44.106,19.589 C43.650,9.121 36.220,7.949 33.019,7.949 C32.341,7.946 31.665,7.996 30.995,8.095 C30.324,7.996 29.648,7.946 28.970,7.949 C25.790,7.949 18.371,9.101 17.884,19.589 C16.975,20.329 16.362,21.365 16.156,22.510 C15.979,24.415 16.604,26.309 17.884,27.744 ZM41.996,19.160 C37.549,19.414 33.129,18.318 29.330,16.020 C28.901,15.722 28.314,15.780 27.953,16.156 C25.833,18.406 21.964,18.930 20.099,19.045 C20.671,11.644 25.207,10.032 29.023,10.032 C29.630,10.028 30.237,10.077 30.836,10.178 C30.975,10.207 31.120,10.207 31.259,10.178 C31.858,10.077 32.465,10.028 33.072,10.032 C36.856,10.032 41.413,11.685 41.943,19.150 L41.996,19.160 ZM20.470,27.943 L20.512,27.954 C20.514,27.696 20.420,27.445 20.247,27.252 C18.795,25.608 18.127,24.111 18.307,22.877 C18.394,22.189 18.738,21.558 19.272,21.107 C20.671,21.107 25.631,20.845 28.811,18.134 C32.392,20.168 36.445,21.250 40.576,21.275 C41.286,21.275 42.007,21.275 42.760,21.160 C43.279,21.598 43.618,22.208 43.713,22.877 C43.894,24.091 43.226,25.608 41.774,27.252 C41.601,27.445 41.507,27.696 41.509,27.954 C41.509,27.954 41.509,28.163 41.509,28.497 L35.340,31.764 C34.116,30.619 32.184,30.672 31.025,31.880 C29.866,33.089 29.919,34.997 31.143,36.143 C32.367,37.287 34.299,37.235 35.458,36.026 C35.995,35.465 36.295,34.724 36.294,33.951 C36.299,33.857 36.299,33.764 36.294,33.670 L41.159,31.093 C40.741,33.158 39.759,35.069 38.319,36.621 C36.440,38.407 33.896,39.347 31.291,39.217 L30.761,39.217 C28.162,39.345 25.624,38.410 23.745,36.631 C20.395,33.333 20.470,27.995 20.470,27.943 ZM34.174,33.951 C34.174,34.466 33.752,34.883 33.231,34.883 C32.710,34.883 32.288,34.466 32.288,33.951 C32.288,33.436 32.710,33.020 33.231,33.020 C33.752,33.020 34.174,33.436 34.174,33.951 ZM29.935,53.841 L5.154,53.841 C5.991,45.980 18.933,42.693 22.982,41.845 L22.982,43.718 C22.982,46.094 25.907,47.905 29.935,48.209 L29.935,53.841 ZM25.101,43.718 L25.101,43.687 L25.101,40.106 C26.863,40.914 28.788,41.315 30.730,41.279 L31.259,41.279 C33.201,41.315 35.126,40.914 36.888,40.106 L36.888,43.718 C36.888,44.712 34.588,46.147 30.995,46.147 C27.401,46.147 25.101,44.712 25.101,43.718 ZM32.054,53.872 L32.054,48.199 C36.082,47.926 39.007,46.105 39.007,43.709 L39.007,41.876 C43.088,42.713 55.966,46.001 56.835,53.872 L32.054,53.872 L32.054,53.872 Z"/>
</svg>