<svg 
 xmlns="http://www.w3.org/2000/svg"
 xmlns:xlink="http://www.w3.org/1999/xlink"
 width="65px" height="65px">
<path fill-rule="evenodd"  stroke="rgb(55, 97, 170)" stroke-width="6px" stroke-linecap="butt" stroke-linejoin="miter" fill="rgb(55, 97, 170)"
 d="M59.000,30.064 L59.000,43.131 C59.000,45.704 56.906,47.798 54.333,47.798 L54.333,58.998 L52.467,58.998 L52.467,47.798 L45.933,47.798 L45.933,58.065 C45.933,58.581 45.516,58.998 45.000,58.998 L38.466,58.998 C37.950,58.998 37.533,58.581 37.533,58.065 L37.533,44.064 C37.533,43.009 37.898,42.046 38.491,41.264 L31.933,41.264 L31.933,57.130 L35.666,57.130 L35.666,58.998 L26.333,58.998 L26.333,57.130 L30.067,57.130 L30.067,41.264 L25.400,41.264 L24.466,41.264 L23.531,41.264 C24.118,42.044 24.466,43.014 24.466,44.064 L24.466,58.065 C24.466,58.581 24.049,58.998 23.533,58.998 L17.000,58.998 C16.484,58.998 16.067,58.581 16.067,58.065 L16.067,47.798 L9.533,47.798 L9.533,58.998 L7.666,58.998 L7.666,47.798 C5.093,47.798 3.000,45.704 3.000,43.131 L3.000,30.064 C3.000,28.096 4.228,26.418 5.955,25.733 C4.164,24.368 3.000,22.219 3.000,19.798 C3.000,15.681 6.350,12.330 10.466,12.330 C14.583,12.330 17.933,15.681 17.933,19.798 C17.933,22.219 16.769,24.368 14.978,25.733 C16.705,26.418 17.933,28.096 17.933,30.064 L17.933,33.798 L25.400,33.798 C25.916,33.798 26.333,34.214 26.333,34.731 L26.333,39.397 L28.634,39.397 L33.957,31.414 L35.510,32.450 L30.877,39.397 L42.200,39.397 L46.866,39.397 L46.866,32.865 L39.400,32.865 C39.152,32.865 38.915,32.766 38.740,32.591 L30.340,24.190 C29.975,23.826 29.975,23.236 30.340,22.871 L34.073,19.138 C34.438,18.772 35.028,18.772 35.393,19.138 L41.653,25.398 L46.611,25.398 C45.055,24.028 44.066,22.028 44.066,19.798 C44.066,15.681 47.416,12.330 51.533,12.330 C55.650,12.330 59.000,15.681 59.000,19.798 C59.000,22.219 57.836,24.368 56.045,25.733 C57.772,26.418 59.000,28.096 59.000,30.064 ZM16.067,19.798 C16.067,16.709 13.555,14.198 10.466,14.198 C7.378,14.198 4.867,16.709 4.867,19.798 C4.867,22.886 7.378,25.398 10.466,25.398 C13.555,25.398 16.067,22.886 16.067,19.798 ZM24.466,35.664 L17.000,35.664 C16.484,35.664 16.067,35.247 16.067,34.731 L16.067,30.064 C16.067,28.521 14.810,27.264 13.266,27.264 L7.666,27.264 C6.123,27.264 4.867,28.521 4.867,30.064 L4.867,43.131 C4.867,44.674 6.123,45.930 7.666,45.930 L17.000,45.930 C17.516,45.930 17.933,46.348 17.933,46.865 L17.933,57.130 L22.600,57.130 L22.600,44.064 C22.600,42.520 21.343,41.264 19.800,41.264 L11.400,41.264 C10.884,41.264 10.466,40.847 10.466,40.331 L10.466,31.931 L12.333,31.931 L12.333,39.397 L24.466,39.397 L24.466,35.664 ZM57.133,19.798 C57.133,16.709 54.622,14.198 51.533,14.198 C48.445,14.198 45.933,16.709 45.933,19.798 C45.933,22.886 48.445,25.398 51.533,25.398 C54.622,25.398 57.133,22.886 57.133,19.798 ZM57.133,30.064 C57.133,28.521 55.877,27.264 54.333,27.264 L41.267,27.264 C41.018,27.264 40.781,27.166 40.607,26.991 L34.733,21.117 L32.320,23.531 L39.786,30.998 L47.800,30.998 C48.316,30.998 48.733,31.414 48.733,31.931 L48.733,40.331 C48.733,40.847 48.316,41.264 47.800,41.264 L42.200,41.264 C40.656,41.264 39.400,42.520 39.400,44.064 L39.400,57.130 L44.066,57.130 L44.066,46.865 C44.066,46.348 44.484,45.930 45.000,45.930 L54.333,45.930 C55.877,45.930 57.133,44.674 57.133,43.131 L57.133,30.064 ZM40.333,16.064 L30.453,16.064 L24.193,22.324 C24.015,22.502 23.776,22.597 23.533,22.597 C23.413,22.597 23.291,22.576 23.176,22.527 C22.827,22.383 22.600,22.041 22.600,21.665 L22.600,16.064 L21.666,16.064 C20.123,16.064 18.866,14.808 18.866,13.264 L18.866,5.798 C18.866,4.254 20.123,2.997 21.666,2.997 L40.333,2.997 C41.877,2.997 43.133,4.254 43.133,5.798 L43.133,13.264 C43.133,14.808 41.877,16.064 40.333,16.064 ZM41.267,5.798 C41.267,5.282 40.848,4.865 40.333,4.865 L21.666,4.865 C21.151,4.865 20.733,5.282 20.733,5.798 L20.733,13.264 C20.733,13.779 21.151,14.198 21.666,14.198 L23.533,14.198 C24.049,14.198 24.466,14.616 24.466,15.131 L24.466,19.411 L29.407,14.471 C29.581,14.295 29.818,14.198 30.067,14.198 L40.333,14.198 C40.848,14.198 41.267,13.779 41.267,13.264 L41.267,5.798 ZM22.600,10.464 L39.400,10.464 L39.400,12.330 L22.600,12.330 L22.600,10.464 ZM30.067,6.730 L39.400,6.730 L39.400,8.597 L30.067,8.597 L30.067,6.730 ZM22.600,6.730 L28.200,6.730 L28.200,8.597 L22.600,8.597 L22.600,6.730 Z"/>
</svg>