<svg 
 xmlns="http://www.w3.org/2000/svg"
 xmlns:xlink="http://www.w3.org/1999/xlink"
 width="68px" height="68px">
<path fill-rule="evenodd"  fill="rgb(30, 81, 136)"
 d="M34.000,-0.002 C15.145,-0.002 -0.000,15.142 -0.000,33.998 C-0.000,52.851 15.145,67.998 34.000,67.998 C52.854,67.998 68.000,52.851 68.000,33.998 C68.000,15.142 52.854,-0.002 34.000,-0.002 ZM53.627,23.334 L53.627,23.334 L53.627,23.334 L28.900,48.987 C28.591,49.298 28.282,49.452 27.818,49.452 C27.354,49.452 26.891,49.298 26.736,48.987 L14.682,36.006 L14.372,35.697 C14.063,35.389 13.909,34.925 13.909,34.616 C13.909,34.306 14.063,33.843 14.372,33.534 L16.536,31.371 C17.154,30.752 18.082,30.752 18.700,31.371 L18.854,31.525 L27.354,40.642 C27.664,40.952 28.127,40.952 28.436,40.642 L49.145,19.161 L49.300,19.161 C49.918,18.542 50.845,18.542 51.463,19.161 L53.627,21.325 C54.245,21.788 54.245,22.716 53.627,23.334 Z"/>
</svg>