<svg id="_5" data-name="5" xmlns="http://www.w3.org/2000/svg" width="816" height="360" viewBox="0 0 816 360">
  <metadata><?xpacket begin="﻿" id="W5M0MpCehiHzreSzNTczkc9d"?>
<x:xmpmeta xmlns:x="adobe:ns:meta/" x:xmptk="Adobe XMP Core 5.6-c142 79.160924, 2017/07/13-01:06:39        ">
   <rdf:RDF xmlns:rdf="http://www.w3.org/1999/02/22-rdf-syntax-ns#">
      <rdf:Description rdf:about=""/>
   </rdf:RDF>
</x:xmpmeta>
                                                                                                    
                                                                                                    
                                                                                                    
                                                                                                    
                                                                                                    
                                                                                                    
                                                                                                    
                                                                                                    
                                                                                                    
                                                                                                    
                                                                                                    
                                                                                                    
                                                                                                    
                                                                                                    
                                                                                                    
                                                                                                    
                                                                                                    
                                                                                                    
                                                                                                    
                                                                                                    
                           
<?xpacket end="w"?></metadata>
<defs>
    <style>
      .cls-1 {
        fill: #1e5188;
      }

      .cls-2 {
        fill: #fff;
        fill-rule: evenodd;
      }
    </style>
  </defs>
  <rect id="Прямоугольник_1_копия" data-name="Прямоугольник 1 копия" class="cls-1" width="816" height="360"/>
  <path id="Mahler" class="cls-2" d="M110,254H706v23H110V254Zm0-171H706v23H110V83Zm-0.352,42.937V234h22.266V204.461l-2.227-50.914L158.781,234H174.07l29.168-80.527-2.226,50.988V234h22.34V125.937H194.109L166.5,204.312l-27.758-78.375H109.648ZM312.637,234h23.675L295.863,125.937H275.23L235,234H258.68l7.422-22.266h39.039Zm-27.09-80.75L299.129,193.7H272.113Zm148.808-27.313H412.09v43.79H368.672v-43.79H346.406V234h22.266V187.687H412.09V234h22.265V125.937Zm41.711,0H453.8V234h69.543V216.113H476.066V125.937Zm125.059,43.79h-42.75V143.973H608.4V125.937H536.109V234h72.438V216.113H558.375V187.168h42.75V169.727ZM681.875,234h23.9v-1.039L682.394,188.8a39.836,39.836,0,0,0,8.016-4.75,27.728,27.728,0,0,0,9.945-14.807,39.045,39.045,0,0,0,1.336-10.65,34,34,0,0,0-2.746-14.1,27.335,27.335,0,0,0-7.867-10.2,35.1,35.1,0,0,0-12.543-6.234,61.224,61.224,0,0,0-16.773-2.116H621.609V234h22.266V194.441h17.738Zm-38-90.027h17.887q8.979,0,13.322,4.379t4.342,12.023a18.36,18.36,0,0,1-1.114,6.568,13.656,13.656,0,0,1-3.3,5.047,14.768,14.768,0,0,1-5.492,3.266,23.323,23.323,0,0,1-7.682,1.15H643.875V143.973Z"/>
</svg>
