<svg 
 xmlns="http://www.w3.org/2000/svg"
 xmlns:xlink="http://www.w3.org/1999/xlink"
 width="103px" height="103px">
<path fill-rule="evenodd"  fill="rgb(0, 0, 0)"
 d="M101.283,97.847 L95.889,97.847 C95.272,100.274 93.377,102.170 90.949,102.786 C87.292,103.715 83.573,101.504 82.643,97.847 L70.138,97.847 C69.522,100.274 67.626,102.170 65.199,102.786 C61.541,103.715 57.822,101.504 56.892,97.847 L49.782,97.847 C48.834,97.847 48.065,97.078 48.065,96.130 L48.065,65.231 C48.065,64.282 48.834,63.513 49.782,63.513 L84.116,63.513 C85.064,63.513 85.833,64.282 85.833,65.231 L85.833,70.380 L96.133,70.380 C96.783,70.380 97.378,70.747 97.668,71.330 L102.819,81.629 C102.938,81.867 103.000,82.130 103.000,82.396 L103.000,96.130 C103.000,97.078 102.231,97.847 101.283,97.847 ZM63.515,99.563 C65.411,99.561 66.947,98.025 66.949,96.130 C66.949,94.235 65.412,92.696 63.515,92.696 C61.619,92.696 60.082,94.235 60.082,96.130 C60.082,98.026 61.619,99.563 63.515,99.563 ZM82.399,66.947 L51.498,66.947 L51.498,94.413 L56.892,94.413 C57.671,91.389 60.393,89.273 63.515,89.263 C66.638,89.273 69.360,91.389 70.138,94.413 L82.399,94.413 L82.399,66.947 ZM89.266,99.563 C91.162,99.561 92.697,98.025 92.700,96.130 C92.700,94.235 91.162,92.696 89.266,92.696 C87.370,92.696 85.833,94.235 85.833,96.130 C85.833,98.026 87.370,99.563 89.266,99.563 ZM95.072,73.813 L92.700,73.813 L92.700,80.681 L98.505,80.681 L95.072,73.813 ZM99.566,84.114 L90.983,84.114 C90.035,84.114 89.266,83.345 89.266,82.396 L89.266,73.813 L85.833,73.813 L85.833,90.219 C86.872,89.600 88.057,89.270 89.266,89.263 C92.388,89.273 95.111,91.389 95.889,94.413 L99.566,94.413 L99.566,84.114 ZM90.794,37.763 L58.549,37.763 L49.454,50.765 C49.018,51.388 48.225,51.650 47.504,51.409 L42.357,49.693 C42.305,49.675 42.254,49.656 42.203,49.633 C41.337,49.248 40.947,48.233 41.331,47.368 L45.597,37.763 L45.129,37.763 C38.849,37.778 32.823,35.279 28.397,30.823 L17.667,20.095 C17.350,19.770 17.175,19.334 17.180,18.881 L17.164,18.881 L17.164,1.714 C17.164,0.766 17.933,-0.002 18.881,-0.002 L27.464,-0.002 C28.223,-0.002 28.891,0.495 29.109,1.221 L33.892,17.164 L47.583,17.164 L44.683,5.564 C44.649,5.428 44.632,5.290 44.632,5.149 C44.631,4.201 45.400,3.431 46.348,3.431 L51.498,3.431 C52.090,3.431 52.641,3.737 52.954,4.238 L61.034,17.164 L74.348,17.164 C79.937,17.178 85.292,19.403 89.247,23.352 L94.565,28.671 C95.568,29.671 96.131,31.032 96.129,32.450 C96.123,35.390 93.735,37.769 90.794,37.763 ZM45.237,47.034 L47.375,47.747 L56.761,34.331 L50.879,34.331 L45.237,47.034 ZM26.187,3.431 L20.598,3.431 L20.598,17.164 L30.307,17.164 L26.187,3.431 ZM50.547,6.864 L48.547,6.864 L51.122,17.164 L56.985,17.164 L50.547,6.864 ZM92.142,31.103 L88.502,27.464 L72.099,27.464 L72.099,24.031 L84.749,24.031 C81.732,21.816 78.091,20.614 74.348,20.597 L23.025,20.597 L30.824,28.397 C34.609,32.206 39.760,34.342 45.129,34.331 L47.122,34.331 L48.194,31.918 C48.469,31.297 49.084,30.898 49.763,30.898 L60.057,30.898 C60.409,30.898 60.752,31.006 61.040,31.207 C61.817,31.751 62.007,32.820 61.463,33.598 L60.951,34.331 L90.794,34.331 C91.568,34.342 92.269,33.874 92.555,33.154 C92.856,32.451 92.692,31.635 92.142,31.103 ZM65.232,24.031 L68.664,24.031 L68.664,27.464 L65.232,27.464 L65.232,24.031 ZM58.365,24.031 L61.797,24.031 L61.797,27.464 L58.365,27.464 L58.365,24.031 ZM51.498,24.031 L54.930,24.031 L54.930,27.464 L51.498,27.464 L51.498,24.031 ZM44.632,24.031 L48.063,24.031 L48.063,27.464 L44.632,27.464 L44.632,24.031 ZM37.765,24.031 L41.196,24.031 L41.196,27.464 L37.765,27.464 L37.765,24.031 ZM17.164,49.781 C17.164,48.832 17.933,48.064 18.881,48.064 L25.748,48.064 C26.696,48.064 27.464,48.832 27.464,49.781 L27.464,54.931 L34.331,54.931 C35.161,54.931 35.872,55.524 36.020,56.340 L39.272,74.223 L43.458,75.618 C43.468,75.621 43.479,75.626 43.489,75.629 C44.383,75.947 44.850,76.930 44.532,77.824 L37.977,96.178 C39.548,96.391 40.998,97.141 42.079,98.302 C42.698,99.084 43.634,99.547 44.632,99.564 L44.632,102.997 C42.772,102.986 41.002,102.199 39.749,100.825 C39.131,100.044 38.193,99.579 37.196,99.564 C36.832,99.561 36.471,99.628 36.133,99.764 C36.118,99.771 36.108,99.785 36.093,99.792 C35.560,100.059 35.075,100.415 34.660,100.845 C33.395,102.207 31.623,102.985 29.763,102.997 C27.904,102.986 26.134,102.199 24.881,100.824 C24.709,100.599 24.508,100.398 24.283,100.226 C22.872,99.147 20.853,99.414 19.773,100.825 C18.520,102.199 16.748,102.986 14.889,102.997 C13.028,102.985 11.255,102.207 9.987,100.845 C9.569,100.413 9.080,100.055 8.542,99.787 C8.527,99.781 8.518,99.767 8.503,99.761 C8.166,99.628 7.806,99.560 7.443,99.563 C6.444,99.579 5.504,100.044 4.883,100.826 C3.629,102.199 1.857,102.987 -0.003,102.997 L-0.003,99.563 C0.996,99.547 1.935,99.084 2.556,98.302 C3.636,97.143 5.083,96.393 6.652,96.179 L0.097,77.824 C0.093,77.814 0.090,77.803 0.086,77.793 C-0.215,76.893 0.271,75.919 1.171,75.618 L5.357,74.223 L8.608,56.340 C8.757,55.524 9.468,54.931 10.297,54.931 L17.164,54.931 L17.164,49.781 ZM24.031,51.497 L20.598,51.497 L20.598,54.931 L24.031,54.931 L24.031,51.497 ZM24.031,96.344 C25.242,96.712 26.338,97.387 27.212,98.303 C27.384,98.528 27.586,98.730 27.811,98.903 C29.221,99.979 31.237,99.712 32.315,98.303 C32.842,97.788 33.426,97.333 34.056,96.948 L40.709,78.321 L24.031,72.762 L24.031,96.344 ZM3.920,78.321 L10.570,96.938 C11.207,97.323 11.797,97.781 12.330,98.302 C12.502,98.526 12.702,98.727 12.927,98.899 C14.339,99.981 16.362,99.714 17.444,98.302 C18.313,97.395 19.398,96.725 20.598,96.354 L20.598,72.762 L3.920,78.321 ZM11.730,58.364 L9.072,72.985 L21.771,68.752 C22.124,68.635 22.505,68.635 22.857,68.752 L35.557,72.985 L32.899,58.364 L11.730,58.364 ZM15.448,61.797 L29.181,61.797 L29.181,65.231 L15.448,65.231 L15.448,61.797 Z"/>
</svg>