<svg 
 xmlns="http://www.w3.org/2000/svg"
 xmlns:xlink="http://www.w3.org/1999/xlink"
 width="105px" height="74px">
<path fill-rule="evenodd"  fill="rgb(0, 0, 255)"
 d="M103.246,59.902 L97.856,59.902 C97.085,65.314 92.861,69.566 87.486,70.344 C80.798,71.311 74.598,66.636 73.637,59.902 L59.358,59.902 C58.586,65.314 54.363,69.566 48.987,70.344 C42.299,71.311 36.099,66.636 35.138,59.902 L31.358,59.902 C30.587,65.314 26.363,69.566 20.988,70.344 C14.300,71.311 8.100,66.636 7.139,59.902 L1.749,59.902 C0.783,59.902 -0.000,59.113 -0.000,58.140 L-0.000,1.759 C-0.000,0.786 0.783,-0.003 1.749,-0.003 L64.747,-0.003 C65.714,-0.003 66.498,0.786 66.498,1.759 L66.498,7.046 L96.247,7.046 C96.913,7.041 97.524,7.419 97.822,8.020 L104.822,22.114 C104.940,22.360 105.000,22.630 104.996,22.903 L104.996,58.140 C104.996,59.113 104.213,59.902 103.246,59.902 ZM47.248,66.951 C52.078,66.944 55.992,63.004 55.998,58.140 C55.998,53.276 52.080,49.331 47.248,49.331 C42.416,49.331 38.498,53.276 38.498,58.140 C38.498,63.006 42.416,66.951 47.248,66.951 ZM19.249,66.951 C24.079,66.944 27.993,63.004 27.999,58.140 C27.999,53.276 24.081,49.331 19.249,49.331 C14.417,49.331 10.499,53.276 10.499,58.140 C10.499,63.006 14.417,66.951 19.249,66.951 ZM62.998,3.522 L3.499,3.522 L3.499,38.760 L62.998,38.760 L62.998,3.522 ZM62.998,42.284 L3.499,42.284 L3.499,56.379 L7.139,56.379 C7.911,50.966 12.134,46.715 17.510,45.937 C24.198,44.971 30.398,49.645 31.358,56.379 L35.138,56.379 C35.910,50.966 40.134,46.715 45.509,45.937 C52.197,44.971 58.397,49.645 59.358,56.379 L62.998,56.379 L62.998,42.284 ZM85.747,66.951 C90.577,66.944 94.491,63.004 94.497,58.140 C94.497,53.276 90.579,49.331 85.747,49.331 C80.915,49.331 76.997,53.276 76.997,58.140 C76.997,63.006 80.915,66.951 85.747,66.951 ZM101.496,38.760 L97.997,38.760 L97.997,42.284 L101.496,42.284 L101.496,38.760 ZM101.496,45.807 L96.247,45.807 C95.281,45.807 94.497,45.018 94.497,44.045 L94.497,36.998 C94.497,36.024 95.281,35.236 96.247,35.236 L101.496,35.236 L101.496,23.319 L95.165,10.569 L66.498,10.569 L66.498,56.379 L73.637,56.379 C74.409,50.966 78.632,46.715 84.008,45.937 C90.696,44.971 96.896,49.645 97.856,56.379 L101.496,56.379 L101.496,45.807 ZM71.747,31.712 C70.781,31.712 69.997,30.923 69.997,29.950 L69.997,15.855 C69.997,14.882 70.781,14.093 71.747,14.093 L90.997,14.093 C91.664,14.088 92.274,14.467 92.572,15.067 L96.072,22.114 C96.190,22.360 96.250,22.630 96.247,22.903 L96.247,29.950 C96.247,30.923 95.463,31.712 94.497,31.712 L71.747,31.712 ZM92.747,23.319 L89.915,17.617 L73.497,17.617 L73.497,28.188 L92.747,28.188 L92.747,23.319 ZM71.747,35.236 L78.747,35.236 C79.714,35.236 80.497,36.024 80.497,36.998 C80.497,37.971 79.714,38.760 78.747,38.760 L71.747,38.760 C70.781,38.760 69.997,37.971 69.997,36.998 C69.997,36.024 70.781,35.236 71.747,35.236 ZM85.747,52.855 C88.646,52.855 90.997,55.222 90.997,58.140 C90.997,61.060 88.646,63.426 85.747,63.426 C82.848,63.426 80.497,61.060 80.497,58.140 C80.497,55.222 82.848,52.855 85.747,52.855 ZM85.747,59.902 C86.713,59.902 87.497,59.113 87.497,58.140 C87.497,57.167 86.713,56.379 85.747,56.379 C84.780,56.379 83.997,57.167 83.997,58.140 C83.997,59.113 84.780,59.902 85.747,59.902 ZM8.749,14.093 L26.249,14.093 C27.215,14.093 27.999,14.882 27.999,15.855 C27.999,16.827 27.215,17.617 26.249,17.617 L8.749,17.617 C7.783,17.617 6.999,16.827 6.999,15.855 C6.999,14.882 7.783,14.093 8.749,14.093 ZM15.749,21.141 L33.249,21.141 C34.215,21.141 34.998,21.929 34.998,22.903 C34.998,23.876 34.215,24.665 33.249,24.665 L15.749,24.665 C14.783,24.665 13.999,23.876 13.999,22.903 C13.999,21.929 14.783,21.141 15.749,21.141 ZM57.748,7.046 C58.714,7.046 59.498,7.835 59.498,8.807 L59.498,12.331 C59.498,13.304 58.714,14.093 57.748,14.093 C56.782,14.093 55.998,13.304 55.998,12.331 L55.998,8.807 C55.998,7.835 56.782,7.046 57.748,7.046 ZM57.748,17.617 C58.714,17.617 59.498,18.405 59.498,19.378 L59.498,33.474 C59.498,34.447 58.714,35.236 57.748,35.236 C56.782,35.236 55.998,34.447 55.998,33.474 L55.998,19.378 C55.998,18.405 56.782,17.617 57.748,17.617 ZM19.249,52.855 C22.148,52.855 24.499,55.222 24.499,58.140 C24.499,61.060 22.148,63.426 19.249,63.426 C16.350,63.426 13.999,61.060 13.999,58.140 C13.999,55.222 16.350,52.855 19.249,52.855 ZM19.249,59.902 C20.215,59.902 20.999,59.113 20.999,58.140 C20.999,57.167 20.215,56.379 19.249,56.379 C18.282,56.379 17.499,57.167 17.499,58.140 C17.499,59.113 18.282,59.902 19.249,59.902 ZM47.248,52.855 C50.148,52.855 52.498,55.222 52.498,58.140 C52.498,61.060 50.148,63.426 47.248,63.426 C44.349,63.426 41.998,61.060 41.998,58.140 C41.998,55.222 44.349,52.855 47.248,52.855 ZM47.248,59.902 C48.214,59.902 48.998,59.113 48.998,58.140 C48.998,57.167 48.214,56.379 47.248,56.379 C46.282,56.379 45.498,57.167 45.498,58.140 C45.498,59.113 46.282,59.902 47.248,59.902 ZM71.747,65.189 C72.714,65.189 73.497,65.976 73.497,66.951 C73.497,68.896 75.064,70.474 76.997,70.474 C77.963,70.474 78.747,71.263 78.747,72.236 C78.747,73.209 77.963,73.998 76.997,73.998 C73.131,73.998 69.997,70.842 69.997,66.951 C69.997,65.976 70.781,65.189 71.747,65.189 Z"/>
</svg>