<svg 
 xmlns="http://www.w3.org/2000/svg"
 xmlns:xlink="http://www.w3.org/1999/xlink"
 width="103px" height="77px">
<path fill-rule="evenodd"  fill="rgb(56, 56, 56)"
 d="M102.934,51.229 L96.067,75.729 C95.856,76.480 95.183,76.997 94.417,76.998 L8.583,76.998 C7.817,76.997 7.144,76.480 6.933,75.729 L0.066,51.229 C0.023,51.073 0.000,50.911 0.000,50.749 C-0.000,49.782 0.768,48.998 1.716,48.998 L10.300,48.998 L10.300,19.248 C10.300,18.282 11.068,17.498 12.016,17.498 L20.600,17.498 L20.600,1.748 C20.600,0.781 21.368,-0.002 22.316,-0.002 L63.517,-0.002 C64.465,-0.002 65.233,0.781 65.233,1.748 L65.233,15.747 C65.233,16.715 64.465,17.498 63.517,17.498 L58.367,17.498 C57.419,17.498 56.650,16.715 56.650,15.747 C56.650,14.782 57.419,13.998 58.367,13.998 L61.800,13.998 L61.800,10.499 L30.900,10.499 L30.900,17.498 L32.617,17.498 C33.565,17.498 34.333,18.282 34.333,19.248 L34.333,48.998 L37.767,48.998 L37.767,36.748 C37.767,35.782 38.535,34.998 39.483,34.998 L44.633,34.998 L44.633,22.748 C44.633,21.781 45.402,20.998 46.350,20.998 L80.684,20.998 C81.632,20.998 82.400,21.781 82.400,22.748 L82.400,34.998 L90.984,34.998 C91.932,34.998 92.701,35.782 92.701,36.748 L92.701,48.998 L101.284,48.998 C101.443,48.998 101.602,49.021 101.755,49.065 C102.667,49.332 103.194,50.300 102.934,51.229 ZM9.877,73.498 L93.123,73.498 L95.083,66.498 L7.917,66.498 L9.877,73.498 ZM13.733,20.998 L13.733,48.998 L30.900,48.998 L30.900,20.998 L13.733,20.998 ZM27.466,3.497 L24.033,3.497 L24.033,17.497 L27.466,17.497 L27.466,3.497 ZM61.800,6.997 L61.800,3.497 L30.900,3.497 L30.900,6.997 L61.800,6.997 ZM41.200,38.497 L41.200,48.998 L54.933,48.998 L54.933,38.497 L41.200,38.497 ZM78.967,24.497 L48.066,24.497 L48.066,34.998 L78.967,34.998 L78.967,24.497 ZM89.267,38.497 L58.367,38.497 L58.367,48.998 L89.267,48.998 L89.267,38.497 ZM3.992,52.498 L6.935,62.998 L96.065,62.998 L99.007,52.498 L3.992,52.498 ZM86.719,57.383 L83.446,57.383 C82.543,57.383 81.810,56.649 81.810,55.742 C81.810,54.836 82.543,54.101 83.446,54.101 L86.719,54.101 C87.623,54.101 88.355,54.836 88.355,55.742 C88.355,56.649 87.622,57.383 86.719,57.383 ZM76.902,57.383 L73.629,57.383 C72.725,57.383 71.993,56.649 71.993,55.742 C71.993,54.836 72.725,54.101 73.629,54.101 L76.902,54.101 C77.805,54.101 78.538,54.836 78.538,55.742 C78.538,56.649 77.805,57.383 76.902,57.383 ZM22.906,24.571 L26.179,24.571 L26.179,27.852 L22.906,27.852 L22.906,24.571 ZM16.361,24.571 L19.634,24.571 L19.634,27.852 L16.361,27.852 L16.361,24.571 Z"/>
</svg>